<svg xmlns="http://www.w3.org/2000/svg" xmlns:xlink="http://www.w3.org/1999/xlink"><defs><style>.sprite-symbol-usage{display:none}.sprite-symbol-usage:target{display:inline}</style><symbol viewBox="0 0 24 24" id="account-outline"><path d="M12 4a4 4 0 0 1 4 4 4 4 0 0 1-4 4 4 4 0 0 1-4-4 4 4 0 0 1 4-4m0 2a2 2 0 0 0-2 2 2 2 0 0 0 2 2 2 2 0 0 0 2-2 2 2 0 0 0-2-2m0 7c2.67 0 8 1.33 8 4v3H4v-3c0-2.67 5.33-4 8-4m0 1.9c-2.97 0-6.1 1.46-6.1 2.1v1.1h12.2V17c0-.64-3.13-2.1-6.1-2.1z"/></symbol><symbol viewBox="0 0 24 24" id="alert-circle-outline"><path d="M11 15h2v2h-2v-2m0-8h2v6h-2V7m1-5C6.47 2 2 6.5 2 12a10 10 0 0 0 10 10 10 10 0 0 0 10-10A10 10 0 0 0 12 2m0 18a8 8 0 0 1-8-8 8 8 0 0 1 8-8 8 8 0 0 1 8 8 8 8 0 0 1-8 8z"/></symbol><symbol aria-hidden="true" class="svg-inline--fa fa-angle-down fa-w-10" viewBox="0 0 320 512" id="angle-down-solid"><path fill="currentColor" d="M143 352.3L7 216.3c-9.4-9.4-9.4-24.6 0-33.9l22.6-22.6c9.4-9.4 24.6-9.4 33.9 0l96.4 96.4 96.4-96.4c9.4-9.4 24.6-9.4 33.9 0l22.6 22.6c9.4 9.4 9.4 24.6 0 33.9l-136 136c-9.2 9.4-24.4 9.4-33.8 0z"/></symbol><symbol viewBox="0 0 24 24" id="angle-up"><path d="M7.41 15.41L12 10.83l4.59 4.58L18 14l-6-6-6 6 1.41 1.41z"/></symbol><symbol viewBox="0 0 24 24" id="archive"><path d="M10 4H4c-1.1 0-1.99.9-1.99 2L2 18c0 1.1.9 2 2 2h16c1.1 0 2-.9 2-2V8c0-1.1-.9-2-2-2h-8l-2-2z"/><path d="M0 0h24v24H0z" fill="none"/></symbol><symbol viewBox="0 0 24 24" id="arrow-down"><path d="M11 4h2v12l5.5-5.5 1.42 1.42L12 19.84l-7.92-7.92L5.5 10.5 11 16V4z"/></symbol><symbol viewBox="0 0 24 24" id="arrow-up"><path d="M13 20h-2V8l-5.5 5.5-1.42-1.42L12 4.16l7.92 7.92-1.42 1.42L13 8v12z"/></symbol><symbol viewBox="0 0 512 512" id="backcall"><path d="M316.8 334.254c-16.046-9.04-46.784-28.652-80.21-62.078-33.434-33.434-53.27-64.399-62.453-80.598l53.918-54.613L91.906 0 24.832 66.633C-.641 92.102-7.238 130.855 8.406 163.066 32.277 212.22 76.328 286.402 150.602 360.68c74.277 74.273 148.46 118.324 197.613 142.195a83.523 83.523 0 0 0 36.566 8.406c21.93 0 43.606-8.57 59.867-24.832l66.766-66.996-138.906-139.137zm99.602 123.984c-13.445 13.43-33.836 16.938-50.746 8.727-46.398-22.535-116.472-64.164-186.824-134.516-70.352-70.351-111.98-140.426-134.516-186.824-8.218-16.914-4.703-37.316 8.696-50.715l38.715-38.46 80.132 80.612-45.933 46.528 5.543 12.445c.902 2.024 22.687 50.168 76.89 104.371 54.239 54.239 101.977 75.57 103.98 76.453l12.282 5.399 47.414-45.91 82.996 83.132zm-47.265-270.183l-93.961-93.957L369.136.137l28.231 28.23-44.773 44.77h99.281c33.086 0 60.004 26.863 60.004 59.886l.121 104.77-39.922.05-.121-104.796c0-11.031-9.008-19.984-20.082-19.984H350.598l46.77 46.765zm0 0"/></symbol><symbol aria-hidden="true" class="svg-inline--fa fa-shopping-basket fa-w-18" viewBox="0 0 576 512" id="basket"><path fill="currentColor" d="M576 216v16c0 13.255-10.745 24-24 24h-8l-26.113 182.788C514.509 462.435 494.257 480 470.37 480H105.63c-23.887 0-44.139-17.565-47.518-41.212L32 256h-8c-13.255 0-24-10.745-24-24v-16c0-13.255 10.745-24 24-24h67.341l106.78-146.821c10.395-14.292 30.407-17.453 44.701-7.058 14.293 10.395 17.453 30.408 7.058 44.701L170.477 192h235.046L326.12 82.821c-10.395-14.292-7.234-34.306 7.059-44.701 14.291-10.395 34.306-7.235 44.701 7.058L484.659 192H552c13.255 0 24 10.745 24 24zM312 392V280c0-13.255-10.745-24-24-24s-24 10.745-24 24v112c0 13.255 10.745 24 24 24s24-10.745 24-24zm112 0V280c0-13.255-10.745-24-24-24s-24 10.745-24 24v112c0 13.255 10.745 24 24 24s24-10.745 24-24zm-224 0V280c0-13.255-10.745-24-24-24s-24 10.745-24 24v112c0 13.255 10.745 24 24 24s24-10.745 24-24z"/></symbol><symbol viewBox="0 0 24 24" id="cart-outline"><path d="M17 18a2 2 0 0 1 2 2 2 2 0 0 1-2 2 2 2 0 0 1-2-2c0-1.11.89-2 2-2M1 2h3.27l.94 2H20a1 1 0 0 1 1 1c0 .17-.05.34-.12.5l-3.58 6.47c-.34.61-1 1.03-1.75 1.03H8.1l-.9 1.63-.03.12a.25.25 0 0 0 .25.25H19v2H7a2 2 0 0 1-2-2c0-.35.09-.68.24-.96l1.36-2.45L3 4H1V2m6 16a2 2 0 0 1 2 2 2 2 0 0 1-2 2 2 2 0 0 1-2-2c0-1.11.89-2 2-2m9-7l2.78-5H6.14l2.36 5H16z"/></symbol><symbol viewBox="-21 -47 682.667 682" id="chat"><path d="M552.012-1.332H87.988C39.473-1.332 0 38.133 0 86.656V370.63c0 48.414 39.3 87.816 87.676 87.988V587.48l185.191-128.863h279.145c48.515 0 87.988-39.472 87.988-87.988V86.656c0-48.523-39.473-87.988-87.988-87.988zm50.488 371.96c0 27.837-22.648 50.49-50.488 50.49h-290.91l-135.926 94.585v-94.586H87.988c-27.84 0-50.488-22.652-50.488-50.488V86.656c0-27.843 22.648-50.488 50.488-50.488h464.024c27.84 0 50.488 22.645 50.488 50.488zm0 0"/><path d="M171.293 131.172h297.414v37.5H171.293zm0 80h297.414v37.5H171.293zm0 80h297.414v37.5H171.293zm0 0"/></symbol><symbol viewBox="0 0 24 24" id="chevron_left"><path d="M15.41 7.41L14 6l-6 6 6 6 1.41-1.41L10.83 12z"/><path d="M0 0h24v24H0z" fill="none"/></symbol><symbol viewBox="0 0 24 24" id="chevron_right"><path d="M10 6L8.59 7.41 13.17 12l-4.58 4.59L10 18l6-6z"/><path d="M0 0h24v24H0z" fill="none"/></symbol><symbol viewBox="0 0 24 24" id="close"><path d="M19 6.41L17.59 5 12 10.59 6.41 5 5 6.41 10.59 12 5 17.59 6.41 19 12 13.41 17.59 19 19 17.59 13.41 12 19 6.41z"/></symbol><symbol viewBox="0 0 48 48" id="comparison"><defs><path d="M0 0h48v48H0V0z" id="comparison_a"/></defs><clipPath id="comparison_b"><use overflow="visible" xlink:href="#comparison_a"/></clipPath><path clip-path="url(#comparison_b)" d="M18.02 28H4v4h14.02v6L26 30l-7.98-8v6zm11.96-2v-6H44v-4H29.98v-6L22 18l7.98 8z"/></symbol><symbol viewBox="0 0 479.058 479.058" id="email"><path d="M434.146 59.882H44.912C20.146 59.882 0 80.028 0 104.794v269.47c0 24.766 20.146 44.912 44.912 44.912h389.234c24.766 0 44.912-20.146 44.912-44.912v-269.47c0-24.766-20.146-44.912-44.912-44.912zm0 29.941c2.034 0 3.969.422 5.738 1.159L239.529 264.631 39.173 90.982a14.902 14.902 0 0 1 5.738-1.159zm0 299.411H44.912c-8.26 0-14.971-6.71-14.971-14.971V122.615l199.778 173.141c2.822 2.441 6.316 3.655 9.81 3.655s6.988-1.213 9.81-3.655l199.778-173.141v251.649c-.001 8.26-6.711 14.97-14.971 14.97z"/></symbol><symbol viewBox="0 0 128 128" id="empty"><path d="M91.4 128a2 2 0 0 1-1.42-.59l-26-26-26 26a2 2 0 0 1-2.83 0L.59 92.81a2 2 0 0 1 0-2.81l26-26-26-26a2 2 0 0 1 0-2.83L35.19.59a2 2 0 0 1 2.81 0l26 26 26-26a2 2 0 0 1 2.83 0l34.6 34.6a2 2 0 0 1 0 2.83l-26 26 26 26a2 2 0 0 1 0 2.83l-34.6 34.6a2 2 0 0 1-1.43.55zM64 96.6a2 2 0 0 1 1.41.59l26 26 31.76-31.79-26-26a2 2 0 0 1 0-2.82l26-26L91.4 4.83l-26 26a2 2 0 0 1-2.82 0l-26-26L4.83 36.6l26 26a2 2 0 0 1 0 2.82l-26 26 31.77 31.75 26-26a2 2 0 0 1 1.4-.57z"/></symbol><symbol viewBox="0 0 24 24" id="facebook"><path d="M17 2v4h-2c-.69 0-1 .81-1 1.5V10h3v4h-3v8h-4v-8H7v-4h3V6a4 4 0 0 1 4-4h3z"/></symbol><symbol viewBox="0 0 24 24" id="favorites"><path d="M12.1 18.55l-.1.1-.11-.1C7.14 14.24 4 11.39 4 8.5 4 6.5 5.5 5 7.5 5c1.54 0 3.04 1 3.57 2.36h1.86C13.46 6 14.96 5 16.5 5c2 0 3.5 1.5 3.5 3.5 0 2.89-3.14 5.74-7.9 10.05M16.5 3c-1.74 0-3.41.81-4.5 2.08C10.91 3.81 9.24 3 7.5 3 4.42 3 2 5.41 2 8.5c0 3.77 3.4 6.86 8.55 11.53L12 21.35l1.45-1.32C18.6 15.36 22 12.27 22 8.5 22 5.41 19.58 3 16.5 3z"/></symbol><symbol viewBox="0 0 24 24" id="google"><path d="M12.02 10.18v3.73h5.51c-.26 1.57-1.67 4.22-5.5 4.22-3.31 0-6.01-2.75-6.01-6.12s2.7-6.12 6.01-6.12c1.87 0 3.13.8 3.85 1.48l2.84-2.76C16.99 2.99 14.73 2 12.03 2c-5.52 0-10 4.48-10 10s4.48 10 10 10c5.77 0 9.6-4.06 9.6-9.77 0-.83-.11-1.42-.25-2.05h-9.36z"/></symbol><symbol viewBox="0 0 512 512" id="grid"><path d="M176.792 0H59.208C26.561 0 0 26.561 0 59.208v117.584C0 209.439 26.561 236 59.208 236h117.584C209.439 236 236 209.439 236 176.792V59.208C236 26.561 209.439 0 176.792 0zM196 176.792c0 10.591-8.617 19.208-19.208 19.208H59.208C48.617 196 40 187.383 40 176.792V59.208C40 48.617 48.617 40 59.208 40h117.584C187.383 40 196 48.617 196 59.208v117.584zM452 0H336c-33.084 0-60 26.916-60 60v116c0 33.084 26.916 60 60 60h116c33.084 0 60-26.916 60-60V60c0-33.084-26.916-60-60-60zm20 176c0 11.028-8.972 20-20 20H336c-11.028 0-20-8.972-20-20V60c0-11.028 8.972-20 20-20h116c11.028 0 20 8.972 20 20v116zM176.792 276H59.208C26.561 276 0 302.561 0 335.208v117.584C0 485.439 26.561 512 59.208 512h117.584C209.439 512 236 485.439 236 452.792V335.208C236 302.561 209.439 276 176.792 276zM196 452.792c0 10.591-8.617 19.208-19.208 19.208H59.208C48.617 472 40 463.383 40 452.792V335.208C40 324.617 48.617 316 59.208 316h117.584c10.591 0 19.208 8.617 19.208 19.208v117.584zM452 276H336c-33.084 0-60 26.916-60 60v116c0 33.084 26.916 60 60 60h116c33.084 0 60-26.916 60-60V336c0-33.084-26.916-60-60-60zm20 176c0 11.028-8.972 20-20 20H336c-11.028 0-20-8.972-20-20V336c0-11.028 8.972-20 20-20h116c11.028 0 20 8.972 20 20v116z"/></symbol><symbol viewBox="0 0 24 24" id="instagram"><path d="M12 4.622c2.403 0 2.688.009 3.637.052.877.04 1.354.187 1.671.31.42.163.72.358 1.035.673.315.315.51.615.673 1.035.123.317.27.794.31 1.671.043.949.052 1.234.052 3.637s-.009 2.688-.052 3.637c-.04.877-.187 1.354-.31 1.671-.163.42-.358.72-.673 1.035-.315.315-.615.51-1.035.673-.317.123-.794.27-1.671.31-.949.043-1.233.052-3.637.052s-2.688-.009-3.637-.052c-.877-.04-1.354-.187-1.671-.31a2.786 2.786 0 0 1-1.035-.673 2.786 2.786 0 0 1-.673-1.035c-.123-.317-.27-.794-.31-1.671-.043-.949-.052-1.234-.052-3.637s.009-2.688.052-3.637c.04-.877.187-1.354.31-1.671.163-.42.358-.72.673-1.035.315-.315.615-.51 1.035-.673.317-.123.794-.27 1.671-.31.949-.043 1.234-.052 3.637-.052M12 3c-2.444 0-2.751.01-3.711.054-.958.044-1.612.196-2.184.418a4.401 4.401 0 0 0-1.594 1.039c-.5.5-.808 1.002-1.038 1.594-.223.572-.375 1.226-.419 2.184C3.01 9.249 3 9.556 3 12s.01 2.751.054 3.711c.044.958.196 1.612.418 2.185.23.592.538 1.094 1.038 1.594s1.002.808 1.594 1.038c.572.222 1.227.375 2.185.418.96.044 1.267.054 3.711.054s2.751-.01 3.711-.054c.958-.044 1.612-.196 2.185-.418a4.411 4.411 0 0 0 1.594-1.038c.5-.5.808-1.002 1.038-1.594.222-.572.375-1.227.418-2.185.044-.96.054-1.267.054-3.711s-.01-2.751-.054-3.711c-.044-.958-.196-1.612-.418-2.185A4.411 4.411 0 0 0 19.49 4.51c-.5-.5-1.002-.808-1.594-1.038-.572-.222-1.227-.375-2.185-.418C14.751 3.01 14.444 3 12 3zm0 4.378a4.622 4.622 0 1 0 0 9.244 4.622 4.622 0 0 0 0-9.244zM12 15a3 3 0 1 1 0-6 3 3 0 0 1 0 6zm4.804-8.884a1.08 1.08 0 1 0 .001 2.161 1.08 1.08 0 0 0-.001-2.161z"/></symbol><symbol viewBox="0 0 24 24" id="list"><path d="M22.5 6h-21C.673 6 0 5.327 0 4.5v-3C0 .673.673 0 1.5 0h21c.827 0 1.5.673 1.5 1.5v3c0 .827-.673 1.5-1.5 1.5zm-21-5a.5.5 0 0 0-.5.5v3a.5.5 0 0 0 .5.5h21a.5.5 0 0 0 .5-.5v-3a.5.5 0 0 0-.5-.5zm21 14h-21C.673 15 0 14.327 0 13.5v-3C0 9.673.673 9 1.5 9h21c.827 0 1.5.673 1.5 1.5v3c0 .827-.673 1.5-1.5 1.5zm-21-5a.5.5 0 0 0-.5.5v3a.5.5 0 0 0 .5.5h21a.5.5 0 0 0 .5-.5v-3a.5.5 0 0 0-.5-.5zm21 14h-21C.673 24 0 23.327 0 22.5v-3c0-.827.673-1.5 1.5-1.5h21c.827 0 1.5.673 1.5 1.5v3c0 .827-.673 1.5-1.5 1.5zm-21-5a.5.5 0 0 0-.5.5v3a.5.5 0 0 0 .5.5h21a.5.5 0 0 0 .5-.5v-3a.5.5 0 0 0-.5-.5z"/></symbol><symbol viewBox="0 0 512 512" id="marker"><path d="M468.329 358.972c-7.263-3.989-16.382-1.336-20.369 5.924-3.989 7.261-1.337 16.381 5.924 20.369C471.752 395.081 482 405.963 482 415.121c0 11.201-15.87 28.561-60.413 43.694C377.582 473.767 318.775 482 256 482s-121.582-8.233-165.587-23.185C45.87 443.683 30 426.322 30 415.121c0-9.158 10.248-20.04 28.116-29.857 7.261-3.988 9.913-13.108 5.924-20.369-3.989-7.26-13.106-9.913-20.369-5.924C23.749 369.916 0 388.542 0 415.121c0 20.374 14.012 49.422 80.762 72.1C127.794 503.2 190.028 512 256 512s128.206-8.8 175.238-24.779c66.75-22.678 80.762-51.726 80.762-72.1 0-26.579-23.749-45.205-43.671-56.149z"/><path d="M142.752 437.13c30.45 8.602 70.669 13.34 113.248 13.34s82.798-4.737 113.248-13.34c37.253-10.523 56.142-25.757 56.142-45.275 0-19.519-18.889-34.751-56.142-45.274-8.27-2.336-17.264-4.385-26.826-6.133a2169.602 2169.602 0 0 1-16.323 27.708c10.584 1.588 20.521 3.535 29.545 5.834 27.416 6.983 37.432 14.844 39.491 17.866-2.06 3.023-12.074 10.884-39.49 17.866-25.949 6.609-59.335 10.379-94.498 10.716a69.731 69.731 0 0 1-5.147.197c-1.729 0-3.444-.071-5.148-.197-35.163-.337-68.549-4.106-94.498-10.716-27.416-6.982-37.431-14.844-39.49-17.866 2.059-3.022 12.075-10.883 39.491-17.866 9.024-2.298 18.961-4.246 29.546-5.834-5.689-9.5-11.13-18.737-16.323-27.708-9.562 1.749-18.557 3.797-26.826 6.133-37.253 10.523-56.142 25.756-56.142 45.274s18.889 34.751 56.142 45.275z"/><path d="M256 390.634c13.353 0 25.482-6.804 32.448-18.201 48.81-79.857 106.992-185.103 106.992-232.994C395.44 62.552 332.888 0 256 0S116.56 62.552 116.56 139.439c0 47.891 58.183 153.137 106.992 232.994 6.966 11.397 19.096 18.201 32.448 18.201zm-56.047-260.769c0-30.903 25.143-56.045 56.047-56.045s56.047 25.142 56.047 56.045c0 30.904-25.143 56.046-56.047 56.046s-56.047-25.141-56.047-56.046z"/></symbol><symbol viewBox="0 -53 384 384" id="menu"><path d="M368 154.668H16c-8.832 0-16-7.168-16-16s7.168-16 16-16h352c8.832 0 16 7.168 16 16s-7.168 16-16 16zM368 32H16C7.168 32 0 24.832 0 16S7.168 0 16 0h352c8.832 0 16 7.168 16 16s-7.168 16-16 16zm0 245.332H16c-8.832 0-16-7.168-16-16s7.168-16 16-16h352c8.832 0 16 7.168 16 16s-7.168 16-16 16zm0 0"/></symbol><symbol fill="#000" viewBox="0 0 297 297" id="menu-points"><path d="M42.352 106.148C18.999 106.148 0 125.147 0 148.5c0 23.353 18.999 42.352 42.352 42.352 23.353 0 42.352-18.999 42.352-42.352 0-23.353-18.999-42.352-42.352-42.352zm106.148 0c-23.353 0-42.352 18.999-42.352 42.352 0 23.353 18.999 42.352 42.352 42.352s42.352-18.999 42.352-42.352c0-23.353-18.999-42.352-42.352-42.352zm106.148 0c-23.353 0-42.352 18.999-42.352 42.352 0 23.353 18.999 42.352 42.352 42.352S297 171.853 297 148.5c0-23.353-18.999-42.352-42.352-42.352z"/></symbol><symbol viewBox="0 0 455 455" id="minus"><path d="M0 212.5h455v30H0z"/></symbol><symbol viewBox="0 0 24 24" id="next"><path d="M8.3 7.1l4.6 4.6-4.6 4.6 1.4 1.4 6-6-6-6-1.4 1.4z"/></symbol><symbol viewBox="0 0 32 32" id="ok"><path d="M120.001 753.38c10.372 0 18.807-8.435 18.807-18.807 0-10.362-8.435-18.799-18.807-18.799-10.362 0-18.807 8.437-18.807 18.799 0 10.372 8.445 18.807 18.807 18.807zm0-64.216c25.055 0 45.422 20.367 45.422 45.409 0 25.052-20.367 45.427-45.422 45.427-25.049 0-45.422-20.375-45.422-45.427 0-25.041 20.373-45.409 45.422-45.409zm18.377-37.055a85.067 85.067 0 0 1 26.377 10.925c6.215 3.917 8.089 12.134 4.172 18.35-3.912 6.23-12.124 8.103-18.35 4.186-18.605-11.703-42.561-11.698-61.156 0-6.227 3.917-14.438 2.043-18.346-4.186-3.917-6.221-2.049-14.433 4.168-18.35a85.196 85.196 0 0 1 26.376-10.925l-25.395-25.394c-5.192-5.197-5.192-13.621.005-18.817a13.277 13.277 0 0 1 9.406-3.897c3.408 0 6.816 1.3 9.417 3.897l24.943 24.954 24.965-24.954c5.192-5.197 13.616-5.197 18.812 0 5.202 5.196 5.202 13.626 0 18.817l-25.394 25.394z" transform="matrix(.125 0 0 -.125 0 102.5)"/></symbol><symbol viewBox="0 0 24 24" id="person"><path d="M12 12c2.21 0 4-1.79 4-4s-1.79-4-4-4-4 1.79-4 4 1.79 4 4 4zm0 2c-2.67 0-8 1.34-8 4v2h16v-2c0-2.66-5.33-4-8-4z"/><path d="M0 0h24v24H0z" fill="none"/></symbol><symbol viewBox="0 0 512.076 512.076" id="phone"><path d="M499.639 396.039l-103.646-69.12c-13.153-8.701-30.784-5.838-40.508 6.579l-30.191 38.818a12.903 12.903 0 0 1-16.546 3.482l-5.743-3.166c-19.038-10.377-42.726-23.296-90.453-71.04s-60.672-71.45-71.049-90.453l-3.149-5.743a12.92 12.92 0 0 1 3.413-16.606l38.792-30.182c12.412-9.725 15.279-27.351 6.588-40.508l-69.12-103.646C109.12 1.056 91.25-2.966 77.461 5.323L34.12 31.358A61.136 61.136 0 0 0 6.242 67.539c-15.607 56.866-3.866 155.008 140.706 299.597 115.004 114.995 200.619 145.92 259.465 145.92a151.181 151.181 0 0 0 40.107-5.239 61.079 61.079 0 0 0 36.181-27.878l26.061-43.315c8.301-13.792 4.281-31.673-9.123-40.585zm-5.581 31.829l-26.001 43.341a44.103 44.103 0 0 1-26.027 20.173c-52.497 14.413-144.213 2.475-283.008-136.32S8.29 124.559 22.703 72.054a44.17 44.17 0 0 1 20.198-26.061l43.341-26.001c5.983-3.6 13.739-1.855 17.604 3.959l37.547 56.371 31.514 47.266c3.774 5.707 2.534 13.356-2.85 17.579l-38.801 30.182c-11.808 9.029-15.18 25.366-7.91 38.332l3.081 5.598c10.906 20.002 24.465 44.885 73.967 94.379 49.502 49.493 74.377 63.053 94.37 73.958l5.606 3.089c12.965 7.269 29.303 3.898 38.332-7.91l30.182-38.801c4.224-5.381 11.87-6.62 17.579-2.85l103.637 69.12c5.818 3.862 7.563 11.622 3.958 17.604zM291.161 86.39c80.081.089 144.977 64.986 145.067 145.067 0 4.713 3.82 8.533 8.533 8.533s8.533-3.82 8.533-8.533c-.099-89.503-72.63-162.035-162.133-162.133-4.713 0-8.533 3.82-8.533 8.533s3.82 8.533 8.533 8.533z" transform="translate(-1 -1)"/><path d="M291.161 137.59c51.816.061 93.806 42.051 93.867 93.867a8.533 8.533 0 0 0 17.066 0c-.071-61.238-49.696-110.863-110.933-110.933-4.713 0-8.533 3.82-8.533 8.533s3.82 8.533 8.533 8.533z" transform="translate(-1 -1)"/><path d="M291.161 188.79c23.552.028 42.638 19.114 42.667 42.667a8.533 8.533 0 0 0 17.066 0c-.038-32.974-26.759-59.696-59.733-59.733-4.713 0-8.533 3.82-8.533 8.533s3.82 8.533 8.533 8.533z" transform="translate(-1 -1)"/></symbol><symbol viewBox="0 0 512 512" id="play-button"><g fill="#231F20"><path d="M354.2 247.4L219.1 155c-4.2-3.1-15.4-3.1-16.3 8.6v184.8c1 11.7 12.4 11.9 16.3 8.6l135.1-92.4c3.5-2.1 8.3-10.7 0-17.2zm-130.5 81.3V183.3L329.8 256l-106.1 72.7z"/><path d="M256 11C120.9 11 11 120.9 11 256s109.9 245 245 245 245-109.9 245-245S391.1 11 256 11zm0 469.1C132.4 480.1 31.9 379.6 31.9 256S132.4 31.9 256 31.9 480.1 132.4 480.1 256 379.6 480.1 256 480.1z"/></g></symbol><symbol viewBox="0 0 455 455" id="plus"><path d="M455 212.5H242.5V0h-30v212.5H0v30h212.5V455h30V242.5H455z"/></symbol><symbol viewBox="0 0 24 24" id="prev"><path d="M15.7 16.3l-4.6-4.6 4.6-4.6-1.4-1.4-6 6 6 6 1.4-1.4z"/></symbol><symbol viewBox="0 0 512 512" id="question"><g id="question_Question_10_"><path d="M271 241h-30v-23.027c0-16.013 8.617-30.946 22.489-38.971C268.122 176.323 271 171.34 271 166c0-8.271-6.729-15-15-15s-15 6.729-15 15h-30c0-24.813 20.187-45 45-45s45 20.187 45 45c0 16.013-8.617 30.946-22.489 38.971-4.633 2.68-7.511 7.662-7.511 13.002zm-30 30h30v30h-30z"/><path d="M256 421c-62.505 0-119.336-35.361-147.275-90.841C48.274 324.05 0 273.281 0 211 0 148.77 48.219 97.958 108.717 91.842 136.87 35.753 193.715 0 256 0s119.13 35.753 147.283 91.842C463.726 97.953 512 148.719 512 211c0 62.234-48.223 113.045-108.725 119.159C375.336 385.639 318.505 421 256 421zm0-391c-53.406 0-101.969 32.28-123.719 82.237l-3.823 8.781-9.575.227C69.873 122.406 30 162.67 30 211s39.873 88.594 88.883 89.755l9.575.227 3.823 8.781C153.767 359.113 202.33 391 256 391s102.233-31.887 123.719-81.237l3.823-8.781 9.575-.227C442.127 299.594 482 259.33 482 211s-39.873-88.594-88.883-89.755l-9.575-.227-3.823-8.781C357.969 62.28 309.406 30 256 30zM106 512c-24.813 0-45-20.187-45-45s20.187-45 45-45 45 20.187 45 45-20.187 45-45 45zm0-60c-8.271 0-15 6.729-15 15s6.729 15 15 15 15-6.729 15-15-6.729-15-15-15z"/></g></symbol><symbol viewBox="0 0 16 16" id="quick-view"><path fill="#444" d="M15.7 14.3l-4.2-4.2c-.2-.2-.5-.3-.8-.3.8-1 1.3-2.4 1.3-3.8 0-3.3-2.7-6-6-6S0 2.7 0 6s2.7 6 6 6c1.4 0 2.8-.5 3.8-1.4 0 .3 0 .6.3.8l4.2 4.2c.2.2.5.3.7.3s.5-.1.7-.3c.4-.3.4-.9 0-1.3zM6 10.5c-2.5 0-4.5-2-4.5-4.5s2-4.5 4.5-4.5 4.5 2 4.5 4.5-2 4.5-4.5 4.5z"/></symbol><symbol viewBox="0 0 510 510" id="schedule"><g id="schedule_schedule" fill-opacity=".9"><path d="M255 0C114.75 0 0 114.75 0 255s114.75 255 255 255 255-114.75 255-255S395.25 0 255 0zm0 459c-112.2 0-204-91.8-204-204S142.8 51 255 51s204 91.8 204 204-91.8 204-204 204z"/><path d="M267.75 127.5H229.5v153l132.6 81.6 20.4-33.15-114.75-68.85z"/></g></symbol><symbol viewBox="0 0 24 24" id="search"><path d="M9.5 3A6.5 6.5 0 0 1 16 9.5c0 1.61-.59 3.09-1.56 4.23l.27.27h.79l5 5-1.5 1.5-5-5v-.79l-.27-.27A6.516 6.516 0 0 1 9.5 16 6.5 6.5 0 0 1 3 9.5 6.5 6.5 0 0 1 9.5 3m0 2C7 5 5 7 5 9.5S7 14 9.5 14 14 12 14 9.5 12 5 9.5 5z"/></symbol><symbol viewBox="0 0 24 24" id="share-variant"><path d="M18 16.08c-.76 0-1.44.3-1.96.77L8.91 12.7c.05-.23.09-.46.09-.7 0-.24-.04-.47-.09-.7l7.05-4.11c.54.5 1.25.81 2.04.81a3 3 0 0 0 3-3 3 3 0 0 0-3-3 3 3 0 0 0-3 3c0 .24.04.47.09.7L8.04 9.81C7.5 9.31 6.79 9 6 9a3 3 0 0 0-3 3 3 3 0 0 0 3 3c.79 0 1.5-.31 2.04-.81l7.12 4.15c-.05.21-.08.43-.08.66 0 1.61 1.31 2.91 2.92 2.91 1.61 0 2.92-1.3 2.92-2.91A2.92 2.92 0 0 0 18 16.08z"/></symbol><symbol viewBox="0 0 401.998 401.998" id="sort-arrows"><path d="M73.092 164.452h255.813c4.949 0 9.233-1.807 12.848-5.424 3.613-3.616 5.427-7.898 5.427-12.847s-1.813-9.229-5.427-12.85L213.846 5.424C210.232 1.812 205.951 0 200.999 0s-9.233 1.812-12.85 5.424L60.242 133.331c-3.617 3.617-5.424 7.901-5.424 12.85 0 4.948 1.807 9.231 5.424 12.847 3.621 3.617 7.902 5.424 12.85 5.424zm255.813 73.097H73.092c-4.952 0-9.233 1.808-12.85 5.421-3.617 3.617-5.424 7.898-5.424 12.847s1.807 9.233 5.424 12.848L188.149 396.57c3.621 3.617 7.902 5.428 12.85 5.428s9.233-1.811 12.847-5.428l127.907-127.906c3.613-3.614 5.427-7.898 5.427-12.848 0-4.948-1.813-9.229-5.427-12.847-3.614-3.616-7.899-5.42-12.848-5.42z"/></symbol><symbol viewBox="0 -11 511.998 511" id="star"><path d="M510.64 185.508c-3.874-11.934-15.425-20.133-31.683-22.496l-132.512-19.258-59.261-120.07C279.914 8.949 268.547.5 256 .5s-23.914 8.45-31.187 23.184l-59.254 120.07-132.52 19.258c-16.258 2.363-27.809 10.562-31.684 22.496-3.875 11.933.649 25.355 12.415 36.82l95.89 93.465-22.64 131.98c-2.895 16.88 2.039 26.997 6.687 32.508 5.457 6.469 13.406 10.031 22.39 10.031 6.766 0 13.958-1.976 21.38-5.878L256 422.12l118.527 62.313c7.422 3.902 14.614 5.878 21.375 5.882h.004c8.985 0 16.938-3.566 22.39-10.035 4.65-5.511 9.583-15.629 6.684-32.508l-22.632-131.98 95.882-93.461c11.766-11.469 16.29-24.89 12.41-36.824zm-33.347 15.34l-101.531 98.968a14.998 14.998 0 0 0-4.313 13.278l23.965 139.754c.7 4.066.398 6.375.121 7.453-1.07-.07-3.367-.485-7.047-2.418L262.98 391.898a15.002 15.002 0 0 0-13.96 0l-125.5 65.98c-3.68 1.935-5.98 2.352-7.051 2.423-.274-1.078-.578-3.387.12-7.453l23.973-139.75a15.004 15.004 0 0 0-4.316-13.278L34.711 200.848c-2.953-2.88-4.066-4.922-4.48-5.957.94-.594 3.042-1.594 7.124-2.188l140.325-20.39a15.001 15.001 0 0 0 11.293-8.208l62.746-127.144c1.828-3.7 3.426-5.387 4.285-6.102.855.715 2.457 2.403 4.281 6.102l62.75 127.144a15.014 15.014 0 0 0 11.297 8.208l140.313 20.39c4.085.594 6.183 1.594 7.125 2.188-.415 1.03-1.524 3.078-4.477 5.957zm0 0"/></symbol><symbol viewBox="0 0 24 24" id="star-outline"><path d="M12 15.39l-3.76 2.27.99-4.28-3.32-2.88 4.38-.37L12 6.09l1.71 4.04 4.38.37-3.32 2.88.99 4.28M22 9.24l-7.19-.61L12 2 9.19 8.63 2 9.24l5.45 4.73L5.82 21 12 17.27 18.18 21l-1.64-7.03L22 9.24z"/></symbol><symbol viewBox="0 0 126.729 126.73" id="star-selected"><path d="M121.215 44.212l-34.899-3.3c-2.2-.2-4.101-1.6-5-3.7l-12.5-30.3c-2-5-9.101-5-11.101 0l-12.4 30.3c-.8 2.1-2.8 3.5-5 3.7l-34.9 3.3c-5.2.5-7.3 7-3.4 10.5l26.3 23.1c1.7 1.5 2.4 3.7 1.9 5.9l-7.9 32.399c-1.2 5.101 4.3 9.3 8.9 6.601l29.1-17.101c1.9-1.1 4.2-1.1 6.1 0l29.101 17.101c4.6 2.699 10.1-1.4 8.899-6.601l-7.8-32.399c-.5-2.2.2-4.4 1.9-5.9l26.3-23.1c3.8-3.5 1.6-10-3.6-10.5z"/></symbol><symbol viewBox="0 0 32 32" id="telegram"><path d="M26.07 3.996a2.974 2.974 0 0 0-.933.223h-.004c-.285.113-1.64.683-3.7 1.547l-7.382 3.109c-5.297 2.23-10.504 4.426-10.504 4.426l.062-.024s-.359.118-.734.375a2.03 2.03 0 0 0-.586.567c-.184.27-.332.683-.277 1.11.09.722.558 1.155.894 1.394.34.242.664.355.664.355h.008l4.883 1.645c.219.703 1.488 4.875 1.793 5.836.18.574.355.933.574 1.207.106.14.23.257.379.351a1.119 1.119 0 0 0 .246.106l-.05-.012c.015.004.027.016.038.02.04.011.067.015.118.023.773.234 1.394-.246 1.394-.246l.035-.028 2.883-2.625 4.832 3.707.11.047c1.007.442 2.027.196 2.566-.238.543-.437.754-.996.754-.996l.035-.09 3.734-19.129c.106-.472.133-.914.016-1.343a1.807 1.807 0 0 0-.781-1.047 1.872 1.872 0 0 0-1.067-.27zm-.101 2.05c-.004.063.008.056-.02.177v.011l-3.699 18.93c-.016.027-.043.086-.117.145-.078.062-.14.101-.465-.028l-5.91-4.531-3.57 3.254.75-4.79 9.656-9c.398-.37.265-.448.265-.448.028-.454-.601-.133-.601-.133l-12.176 7.543-.004-.02-5.836-1.965v-.004l-.015-.003a.27.27 0 0 0 .03-.012l.032-.016.031-.011s5.211-2.196 10.508-4.426c2.652-1.117 5.324-2.242 7.379-3.11a807.312 807.312 0 0 1 3.66-1.53c.082-.032.043-.032.102-.032z"/></symbol><symbol viewBox="0 0 24 24" id="twitter"><path d="M22.46 6c-.77.35-1.6.58-2.46.69.88-.53 1.56-1.37 1.88-2.38-.83.5-1.75.85-2.72 1.05C18.37 4.5 17.26 4 16 4c-2.35 0-4.27 1.92-4.27 4.29 0 .34.04.67.11.98C8.28 9.09 5.11 7.38 3 4.79c-.37.63-.58 1.37-.58 2.15 0 1.49.75 2.81 1.91 3.56-.71 0-1.37-.2-1.95-.5v.03c0 2.08 1.48 3.82 3.44 4.21a4.22 4.22 0 0 1-1.93.07 4.28 4.28 0 0 0 4 2.98 8.521 8.521 0 0 1-5.33 1.84c-.34 0-.68-.02-1.02-.06C3.44 20.29 5.7 21 8.12 21 16 21 20.33 14.46 20.33 8.79c0-.19 0-.37-.01-.56.84-.6 1.56-1.36 2.14-2.23z"/></symbol><symbol viewBox="0 0 512 512" id="user-profile"><path d="M511.676 498.752l-12.8-51.2a74.345 74.345 0 0 0-48.747-52.885l-93.867-31.275c-22.891-9.536-33.365-46.4-35.627-60.395a88.703 88.703 0 0 0 31.36-57.664 17.391 17.391 0 0 1 2.581-10.987 10.665 10.665 0 0 0 7.317-6.4 159.447 159.447 0 0 0 11.435-46.613 10.254 10.254 0 0 0-.32-2.581 27.434 27.434 0 0 0-10.347-15.531v-56.555c0-34.368-10.496-48.469-21.547-56.64C339.004 33.472 321.276 0 255.996 0c-57.917 2.332-104.335 48.75-106.667 106.667v56.555a27.434 27.434 0 0 0-10.347 15.531 10.26 10.26 0 0 0-.32 2.581 159.454 159.454 0 0 0 11.435 46.635 9.067 9.067 0 0 0 6.4 6.123c1.195.597 3.435 3.691 3.435 11.243a88.683 88.683 0 0 0 31.531 57.771c-2.24 13.973-12.651 50.816-34.901 60.117l-94.699 31.445a74.346 74.346 0 0 0-48.725 52.843l-12.8 51.2c-1.449 5.71 2.005 11.514 7.715 12.963.853.217 1.73.327 2.61.328H501.33c5.891-.002 10.665-4.779 10.664-10.67a10.722 10.722 0 0 0-.318-2.58z" fill="#455a64"/></symbol><symbol viewBox="0 0 24 24" id="view-list"><path d="M9 5v4h12V5M9 19h12v-4H9m0-1h12v-4H9M4 9h4V5H4m0 14h4v-4H4m0-1h4v-4H4v4z"/></symbol><symbol viewBox="0 0 24 24" id="vk"><path d="M20.8 7.74c.13-.42 0-.74-.62-.74h-2.02c-.52 0-.75.27-.88.57 0 0-1.03 2.51-2.49 4.15-.48.47-.69.62-.95.62-.13 0-.34-.15-.34-.58V7.74c0-.51-.12-.74-.55-.74H9.76c-.32 0-.51.24-.51.47 0 .48.75.6.8 1.97v2.98c0 .66-.12.78-.37.78-.68 0-2.36-2.53-3.35-5.41-.2-.56-.39-.79-.91-.79H3.39c-.57 0-.69.27-.69.57 0 .54.69 3.2 3.2 6.72C7.57 16.7 9.93 18 12.08 18c1.29 0 1.45-.29 1.45-.79v-1.82c0-.57.12-.69.53-.69.3 0 .81.15 2.01 1.3 1.38 1.38 1.6 2 2.38 2h2.02c.58 0 .87-.29.71-.86-.18-.57-.84-1.4-1.71-2.38-.47-.55-1.18-1.15-1.4-1.46-.3-.38-.21-.55 0-.9 0 0 2.47-3.47 2.73-4.66z"/></symbol><symbol viewBox="0 0 512 512" id="whatsapp"><path d="M435.922 74.352C387.824 26.434 323.84.027 255.742 0 187.797 0 123.711 26.383 75.297 74.29 26.797 122.276.063 186.05 0 253.628v.125c.008 40.902 10.754 82.164 31.152 119.828L.7 512l140.012-31.848c35.46 17.871 75.027 27.293 114.934 27.309h.101c67.934 0 132.02-26.387 180.441-74.297 48.543-48.027 75.29-111.719 75.32-179.34.02-67.144-26.82-130.883-75.585-179.472zM255.742 467.5h-.09c-35.832-.016-71.336-9.012-102.668-26.023l-6.62-3.594-93.102 21.176 20.222-91.907-3.898-6.722C50.203 327.004 39.96 290.105 39.96 253.71c.074-117.8 96.863-213.75 215.773-213.75 57.446.024 111.422 22.294 151.985 62.7 41.176 41.031 63.844 94.711 63.824 151.153-.047 117.828-96.856 213.687-215.8 213.687zm0 0"/><path d="M186.152 141.863h-11.21c-3.903 0-10.239 1.461-15.598 7.293-5.364 5.836-20.477 19.942-20.477 48.63s20.965 56.405 23.887 60.3c2.926 3.89 40.469 64.64 99.93 88.012 49.418 19.422 59.476 15.558 70.199 14.586 10.726-.97 34.613-14.102 39.488-27.715s4.875-25.285 3.414-27.723c-1.465-2.43-5.367-3.887-11.215-6.8-5.851-2.919-34.523-17.262-39.886-19.212-5.364-1.941-9.262-2.914-13.164 2.926-3.903 5.828-15.391 19.313-18.805 23.203-3.41 3.895-6.824 4.383-12.676 1.465-5.852-2.926-24.5-9.191-46.848-29.05-17.394-15.458-29.464-35.169-32.879-41.005-3.41-5.832-.363-8.988 2.57-11.898 2.63-2.61 6.18-6.18 9.106-9.582 2.922-3.406 3.754-5.836 5.707-9.727 1.95-3.89.973-7.296-.488-10.21-1.465-2.919-12.691-31.75-17.895-43.282h.004c-4.382-9.71-8.996-10.039-13.164-10.21zm0 0"/></symbol><symbol viewBox="0 0 512 512" id="write-an-appeal"><path d="M117.333 149.333H352a10.66 10.66 0 0 0 10.667-10.667A10.66 10.66 0 0 0 352 127.999H117.333a10.66 10.66 0 0 0-10.667 10.667 10.662 10.662 0 0 0 10.667 10.667zm128 106.667h-128a10.66 10.66 0 0 0-10.667 10.667 10.66 10.66 0 0 0 10.667 10.667h128A10.66 10.66 0 0 0 256 266.667 10.66 10.66 0 0 0 245.333 256z"/><path d="M471.167 64c-.618 0-1.217.155-1.833.184V64c0-23.531-19.146-42.667-42.667-42.667h-384C19.146 21.333 0 40.469 0 64v416a10.67 10.67 0 0 0 6.583 9.854c1.313.552 2.708.813 4.083.813 2.771 0 5.5-1.083 7.542-3.125L121.75 384h304.917c23.521 0 42.667-19.135 42.667-42.667V164.411l30.708-30.703v-.01c7.604-7.604 11.958-18.125 11.958-28.865C512 82.313 493.688 64 471.167 64zM448 341.333c0 11.76-9.563 21.333-21.333 21.333H117.333a10.66 10.66 0 0 0-7.542 3.125L21.333 454.25V64c0-11.76 9.563-21.333 21.333-21.333h384C438.438 42.667 448 52.24 448 64v7.286c-2.025 1.392-3.962 2.923-5.708 4.672L326.232 192H117.333a10.66 10.66 0 0 0-10.667 10.667 10.66 10.66 0 0 0 10.667 10.667h191.785l-10.243 51.24c-.708 3.5.396 7.115 2.917 9.635a10.68 10.68 0 0 0 7.542 3.125c.688 0 1.396-.073 2.083-.208l53.313-10.667a10.601 10.601 0 0 0 5.458-2.917l77.812-77.8v155.591zm-90.604-95.156l-34.458 6.896 6.896-34.5 96.828-96.828 27.587 27.587-96.853 96.845zm127.562-127.552l-15.625 15.625-27.589-27.589 15.63-15.63a19.662 19.662 0 0 1 13.792-5.698c10.75 0 19.5 8.75 19.5 19.5.001 5.125-2.083 10.157-5.708 13.792z"/></symbol><symbol viewBox="0 0 24 24" id="youtube"><path d="M21.8 8.001s-.195-1.378-.795-1.985c-.76-.797-1.613-.801-2.004-.847-2.799-.202-6.997-.202-6.997-.202h-.009s-4.198 0-6.997.202c-.39.047-1.242.051-2.003.847-.6.607-.795 1.985-.795 1.985S2 9.62 2 11.238v1.517c0 1.618.2 3.237.2 3.237s.195 1.378.795 1.985c.761.797 1.76.771 2.205.855 1.6.153 6.8.201 6.8.201s4.203-.006 7.001-.209c.391-.047 1.243-.051 2.004-.847.6-.607.795-1.985.795-1.985s.2-1.618.2-3.237v-1.517c0-1.618-.2-3.237-.2-3.237zM9.935 14.594l-.001-5.62 5.404 2.82-5.403 2.8z"/></symbol></defs><use id="account-outline-usage" xlink:href="#account-outline" class="sprite-symbol-usage"/><use id="alert-circle-outline-usage" xlink:href="#alert-circle-outline" class="sprite-symbol-usage"/><use id="angle-down-solid-usage" xlink:href="#angle-down-solid" class="sprite-symbol-usage"/><use id="angle-up-usage" xlink:href="#angle-up" class="sprite-symbol-usage"/><use id="archive-usage" xlink:href="#archive" class="sprite-symbol-usage"/><use id="arrow-down-usage" xlink:href="#arrow-down" class="sprite-symbol-usage"/><use id="arrow-up-usage" xlink:href="#arrow-up" class="sprite-symbol-usage"/><use id="backcall-usage" xlink:href="#backcall" class="sprite-symbol-usage"/><use id="basket-usage" xlink:href="#basket" class="sprite-symbol-usage"/><use id="cart-outline-usage" xlink:href="#cart-outline" class="sprite-symbol-usage"/><use id="chat-usage" xlink:href="#chat" class="sprite-symbol-usage"/><use id="chevron_left-usage" xlink:href="#chevron_left" class="sprite-symbol-usage"/><use id="chevron_right-usage" xlink:href="#chevron_right" class="sprite-symbol-usage"/><use id="close-usage" xlink:href="#close" class="sprite-symbol-usage"/><use id="comparison-usage" xlink:href="#comparison" class="sprite-symbol-usage"/><use id="email-usage" xlink:href="#email" class="sprite-symbol-usage"/><use id="empty-usage" xlink:href="#empty" class="sprite-symbol-usage"/><use id="facebook-usage" xlink:href="#facebook" class="sprite-symbol-usage"/><use id="favorites-usage" xlink:href="#favorites" class="sprite-symbol-usage"/><use id="google-usage" xlink:href="#google" class="sprite-symbol-usage"/><use id="grid-usage" xlink:href="#grid" class="sprite-symbol-usage"/><use id="instagram-usage" xlink:href="#instagram" class="sprite-symbol-usage"/><use id="list-usage" xlink:href="#list" class="sprite-symbol-usage"/><use id="marker-usage" xlink:href="#marker" class="sprite-symbol-usage"/><use id="menu-usage" xlink:href="#menu" class="sprite-symbol-usage"/><use id="menu-points-usage" xlink:href="#menu-points" class="sprite-symbol-usage"/><use id="minus-usage" xlink:href="#minus" class="sprite-symbol-usage"/><use id="next-usage" xlink:href="#next" class="sprite-symbol-usage"/><use id="ok-usage" xlink:href="#ok" class="sprite-symbol-usage"/><use id="person-usage" xlink:href="#person" class="sprite-symbol-usage"/><use id="phone-usage" xlink:href="#phone" class="sprite-symbol-usage"/><use id="play-button-usage" xlink:href="#play-button" class="sprite-symbol-usage"/><use id="plus-usage" xlink:href="#plus" class="sprite-symbol-usage"/><use id="prev-usage" xlink:href="#prev" class="sprite-symbol-usage"/><use id="question-usage" xlink:href="#question" class="sprite-symbol-usage"/><use id="quick-view-usage" xlink:href="#quick-view" class="sprite-symbol-usage"/><use id="schedule-usage" xlink:href="#schedule" class="sprite-symbol-usage"/><use id="search-usage" xlink:href="#search" class="sprite-symbol-usage"/><use id="share-variant-usage" xlink:href="#share-variant" class="sprite-symbol-usage"/><use id="sort-arrows-usage" xlink:href="#sort-arrows" class="sprite-symbol-usage"/><use id="star-usage" xlink:href="#star" class="sprite-symbol-usage"/><use id="star-outline-usage" xlink:href="#star-outline" class="sprite-symbol-usage"/><use id="star-selected-usage" xlink:href="#star-selected" class="sprite-symbol-usage"/><use id="telegram-usage" xlink:href="#telegram" class="sprite-symbol-usage"/><use id="twitter-usage" xlink:href="#twitter" class="sprite-symbol-usage"/><use id="user-profile-usage" xlink:href="#user-profile" class="sprite-symbol-usage"/><use id="view-list-usage" xlink:href="#view-list" class="sprite-symbol-usage"/><use id="vk-usage" xlink:href="#vk" class="sprite-symbol-usage"/><use id="whatsapp-usage" xlink:href="#whatsapp" class="sprite-symbol-usage"/><use id="write-an-appeal-usage" xlink:href="#write-an-appeal" class="sprite-symbol-usage"/><use id="youtube-usage" xlink:href="#youtube" class="sprite-symbol-usage"/></svg>